<svg width="64" height="64" viewBox="0 0 92 98"
  xmlns="http://www.w3.org/2000/svg">
  <g transform="matrix(1.078, 0, 0, 1.078, -7.85, -5.39)" fill="white">
    <path d="M65.4375,5 L27.625,56.3125 L48.96875,56.3125 L34.46875,94.9375 L34.5625,95 L72.375,43.6875 L51.03125,43.6875 L65.4375,5 Z
             M50,7.28125 C26.449583,7.28125 7.28125,26.449403 7.28125,50 C7.28125,67.813869 18.246038,83.131095 33.78125,89.53125
             C34.630545,87.291491 35.49838,85.053717 36.34375,82.8125 C23.497307,77.47224 14.46875,64.810748 14.46875,50
             C14.46875,30.340591 30.340716,14.46875 50,14.46875 C51.720512,14.46875 53.408245,14.608868 55.0625,14.84375
             C56.642468,12.704413 58.231415,10.544525 59.8125,8.40625 C56.663578,7.6637137 53.371995,7.28125 50,7.28125 Z
             M66.03125,10.40625 C65.241554,12.665449 64.450498,14.908769 63.625,17.15625 C76.504761,22.482632 85.53125,35.165241
             85.53125,50 C85.53125,69.659428 69.659265,85.5 50,85.5 C48.287119,85.5 46.616984,85.389026 44.96875,85.15625
             C43.394739,87.299097 41.821293,89.448905 40.25,91.59375 C43.385097,92.329392 46.644168,92.71875 50,92.71875
             C73.550417,92.71875 92.71875,73.550616 92.71875,50 C92.71875,32.119963 81.658172,16.763654 66.03125,10.40625 Z"/>
  </g>
</svg>
